<svg xmlns="http://www.w3.org/2000/svg" version="1.1" xmlns:xlink="http://www.w3.org/1999/xlink" xmlns:svgjs="http://svgjs.com/svgjs" width="1000" height="1000"><rect width="1000" height="1000" rx="200" ry="200" fill="#ffffff"></rect><g transform="matrix(56.25,0,0,56.25,46.993835389614105,45.949917912483215)"><svg xmlns="http://www.w3.org/2000/svg" version="1.1" xmlns:xlink="http://www.w3.org/1999/xlink" xmlns:svgjs="http://svgjs.com/svgjs" width="16" height="16"><svg width="16" height="16" viewBox="0 0 16 16" fill="none" xmlns="http://www.w3.org/2000/svg">
<path d="M4.27545 1.92564V6H3.09802V1.92564H1.70161V1.02461H5.7293L5.60725 1.92564H4.27545Z" fill="#0074D9"></path>
<path d="M13.079 2.64718C13.079 2.47008 13.0455 2.3241 12.9785 2.20923C12.9139 2.09196 12.8145 2.00581 12.6805 1.95077C12.5489 1.89333 12.3826 1.86461 12.1816 1.86461H11.7795V3.49077H12.2426C12.4173 3.49077 12.5669 3.46085 12.6913 3.40102C12.8157 3.34119 12.9115 3.24906 12.9785 3.12461C13.0455 3.00017 13.079 2.84102 13.079 2.64718ZM14.2923 2.64359C14.2923 3.02889 14.2098 3.34718 14.0446 3.59846C13.8795 3.84974 13.6486 4.0376 13.3518 4.16205C13.0551 4.2841 12.7104 4.34512 12.318 4.34512H11.7795V6H10.6021V1.02461H12.1672C12.8421 1.02461 13.365 1.15863 13.7359 1.42666C14.1069 1.6947 14.2923 2.10034 14.2923 2.64359Z" fill="#0074D9"></path>
<path d="M5.61802 13.5462C5.61802 13.8549 5.53665 14.1277 5.37391 14.3646C5.21357 14.6015 4.98263 14.787 4.68109 14.921C4.37955 15.055 4.01699 15.122 3.5934 15.122C3.12434 15.122 2.73066 15.0538 2.41237 14.9174C2.09648 14.7786 1.83443 14.6075 1.62622 14.4041L2.22212 13.7436C2.40639 13.9039 2.60981 14.0284 2.83237 14.1169C3.05494 14.2031 3.29904 14.2462 3.56468 14.2462C3.72981 14.2462 3.8746 14.2222 3.99904 14.1744C4.12349 14.1265 4.22041 14.0571 4.28981 13.9662C4.35921 13.8752 4.39391 13.7651 4.39391 13.6359C4.39391 13.5138 4.36639 13.4109 4.31135 13.3272C4.25631 13.2434 4.16297 13.168 4.03135 13.101C3.90212 13.034 3.72143 12.9658 3.4893 12.8964C3.10161 12.7767 2.7893 12.6451 2.55237 12.5015C2.31784 12.3579 2.14673 12.1916 2.03904 12.0026C1.93374 11.8135 1.88109 11.5933 1.88109 11.342C1.88109 11.0381 1.96485 10.7785 2.13237 10.5631C2.30229 10.3477 2.52964 10.1838 2.81443 10.0713C3.09921 9.95641 3.41272 9.89897 3.75494 9.89897C4.14024 9.89897 4.48007 9.95521 4.77443 10.0677C5.06878 10.1778 5.32366 10.3357 5.53904 10.5415L4.98263 11.1805C4.81511 11.0393 4.63443 10.9352 4.44058 10.8682C4.24673 10.7988 4.0493 10.7641 3.84827 10.7641C3.6999 10.7641 3.56947 10.7832 3.45699 10.8215C3.34451 10.8574 3.25716 10.9113 3.19494 10.9831C3.13272 11.0549 3.10161 11.1446 3.10161 11.2523C3.10161 11.3576 3.13152 11.4462 3.19135 11.5179C3.25118 11.5897 3.35528 11.6579 3.50366 11.7226C3.65203 11.7848 3.85784 11.8578 4.12109 11.9415C4.4346 12.0373 4.70263 12.1521 4.92519 12.2861C5.15015 12.4178 5.32126 12.5841 5.43853 12.7851C5.55819 12.9862 5.61802 13.2398 5.61802 13.5462Z" fill="#0074D9"></path>
<path d="M14.4826 10.0246L13.901 15H12.6769L12.3144 11.4426L11.9159 15H10.6703L10.1318 10.0246H11.2339L11.4026 13.9949L11.8154 10.599H12.8277L13.2118 13.9949L13.4595 10.0246H14.4826Z" fill="#0074D9"></path>
</svg></svg></g></svg>