<svg width="65" height="65" viewBox="0 0 65 65" fill="none" xmlns="http://www.w3.org/2000/svg">
<path fill-rule="evenodd" clip-rule="evenodd" d="M0.394226 32.3334C0.394226 14.7333 14.7942 0.333344 32.3942 0.333344C49.9942 0.333344 64.3942 14.7333 64.3942 32.3334C64.3942 49.9334 49.9942 64.3334 32.3942 64.3334C31.3613 64.3334 30.3393 64.2838 29.3307 64.1868C31.5942 62.9985 33.1509 60.6407 33.1933 57.9211C46.9373 57.4972 57.9942 46.1781 57.9942 32.3334C57.9942 18.2213 46.5062 6.73335 32.3942 6.73335C18.2822 6.73335 6.79423 18.2213 6.79423 32.3334C6.79423 35.3763 7.32836 38.2972 8.30776 41.0072H4.39413V47.7775C1.84718 43.1917 0.394226 37.9239 0.394226 32.3334ZM12.6838 57.4974C11.4443 56.5232 10.2778 55.4598 9.19413 54.3171V45.8072H10.6364C11.2851 46.8507 12.0068 47.8444 12.7941 48.781V56.6072C12.7941 56.9146 12.7558 57.2128 12.6838 57.4974ZM16.4568 52.3513C16.6093 53.0032 17.0296 53.5551 17.5941 53.8835C17.9477 54.0892 18.3578 54.2072 18.7941 54.2072H19.1089C18.1849 53.6438 17.2993 53.0236 16.4568 52.3513ZM24.2577 56.6072H19.9941V55.4072H16.3941V57.8072C16.3941 58.1028 16.4483 58.3864 16.5472 58.6485C16.6671 58.9663 16.8527 59.2525 17.0873 59.4903C17.5232 59.9323 18.1281 60.2072 18.7941 60.2072H25.9941C27.3141 60.2072 28.3941 59.1272 28.3941 57.8072V57.621C26.9735 57.397 25.5913 57.0557 24.2577 56.6072ZM29.1942 16.3333H33.9942V32.9734L48.3942 41.6134L45.8342 45.7734L29.1942 35.5334V16.3333Z" fill="#111111" fill-opacity="0.5"/>
<path d="M33.9926 16.3361H29.1926V35.5361L45.8326 45.7761L48.3926 41.6161L33.9926 32.9761V16.3361Z" fill="#0074D9"/>
<path d="M16.3941 57.8072V55.4072H19.9941V56.6072H24.7941V54.2072H18.7941C17.4741 54.2072 16.3941 53.1272 16.3941 51.8072V48.2072C16.3941 46.8872 17.4741 45.8072 18.7941 45.8072H25.9941C27.3141 45.8072 28.3941 46.8872 28.3941 48.2072V50.6072H24.7941V49.4072H19.9941V51.8072H25.9941C27.3141 51.8072 28.3941 52.8872 28.3941 54.2072V57.8072C28.3941 59.1272 27.3141 60.2072 25.9941 60.2072H18.7941C17.4741 60.2072 16.3941 59.1272 16.3941 57.8072ZM9.19414 45.8072V56.6072H5.59414V54.2072H1.99414V56.6072C1.99414 58.5992 3.60214 60.2072 5.59414 60.2072H9.19414C11.1861 60.2072 12.7941 58.5992 12.7941 56.6072V45.8072C12.7941 45.8072 11.1861 45.8072 9.19414 45.8072Z" fill="#DB00FF"/>
</svg>
