<svg width="65" height="64" viewBox="0 0 65 64" fill="none" xmlns="http://www.w3.org/2000/svg">
<path d="M32.9298 5.33333C18.2632 5.33333 6.26318 17.3333 6.26318 32C6.26318 46.6667 18.2632 58.6667 32.9298 58.6667C47.5965 58.6667 59.5965 46.6667 59.5965 32C59.5965 17.3333 47.5965 5.33333 32.9298 5.33333ZM32.9298 53.3333C21.1698 53.3333 11.5965 43.76 11.5965 32C11.5965 20.24 21.1698 10.6667 32.9298 10.6667C44.6898 10.6667 54.2632 20.24 54.2632 32C54.2632 43.76 44.6898 53.3333 32.9298 53.3333ZM34.2632 18.6667H30.2632V34.6667L44.1299 43.2L46.2632 39.7333L34.2632 32.5333V18.6667Z" fill="#0074D9"/>
</svg>
