<svg width="101" height="101" viewBox="0 0 101 101" fill="none" xmlns="http://www.w3.org/2000/svg">
<path fill-rule="evenodd" clip-rule="evenodd" d="M0.693359 50.6142C0.693359 23.1141 23.1934 0.614136 50.6934 0.614136C78.1934 0.614136 100.693 23.1141 100.693 50.6142C100.693 78.1142 78.1934 100.614 50.6934 100.614C49.0794 100.614 47.4826 100.537 45.9066 100.385C49.4432 98.5285 51.8757 94.8444 51.9418 90.5949C73.4169 89.9327 90.6934 72.2465 90.6934 50.6142C90.6934 28.5641 72.7434 10.6141 50.6934 10.6141C28.6434 10.6141 10.6934 28.5641 10.6934 50.6142C10.6934 55.3687 11.5279 59.9326 13.0582 64.1671H6.94321V74.7457C2.9636 67.5803 0.693359 59.3495 0.693359 50.6142ZM19.8958 89.933C17.9591 88.4108 16.1364 86.7492 14.4432 84.9638V71.6671H16.6968C17.7104 73.2975 18.8379 74.8501 20.0682 76.3137V88.5421C20.0682 89.0224 20.0084 89.4883 19.8958 89.933ZM25.7911 81.8923C26.0295 82.9109 26.6862 83.7732 27.5682 84.2863C28.1206 84.6077 28.7614 84.7921 29.4432 84.7921H29.935C28.4913 83.9118 27.1075 82.9426 25.7911 81.8923ZM37.98 88.5421H31.3182V86.6671H25.6932V90.4171C25.6932 90.879 25.7778 91.322 25.9324 91.7316C26.1197 92.2281 26.4097 92.6753 26.7763 93.0469C27.4574 93.7375 28.4026 94.1671 29.4432 94.1671H40.6932C42.7557 94.1671 44.4432 92.4796 44.4432 90.4171V90.1261C42.2235 89.7761 40.0637 89.2428 37.98 88.5421ZM45.6934 25.6141H53.1934V51.6142L75.6934 65.1142L71.6934 71.6142L45.6934 55.6142V25.6141Z" fill="#111111" fill-opacity="0.5"/>
<path d="M53.1909 25.6185H45.6909V55.6185L71.6909 71.6185L75.6909 65.1185L53.1909 51.6185V25.6185Z" fill="#0074D9"/>
<path d="M25.6932 90.4171V86.6671H31.3182V88.5421H38.8183V84.7921H29.4432C27.3807 84.7921 25.6932 83.1046 25.6932 81.0421V75.4171C25.6932 73.3546 27.3807 71.6671 29.4432 71.6671H40.6933C42.7558 71.6671 44.4433 73.3546 44.4433 75.4171V79.1671H38.8183V77.2921H31.3182V81.0421H40.6933C42.7558 81.0421 44.4433 82.7296 44.4433 84.7921V90.4171C44.4433 92.4796 42.7558 94.1671 40.6933 94.1671H29.4432C27.3807 94.1671 25.6932 92.4796 25.6932 90.4171ZM14.4432 71.6671V88.5421H8.81824V84.7921H3.19324V88.5421C3.19324 91.6546 5.70574 94.1671 8.81824 94.1671H14.4432C17.5557 94.1671 20.0682 91.6546 20.0682 88.5421V71.6671C20.0682 71.6671 17.5557 71.6671 14.4432 71.6671Z" fill="#DB00FF"/>
</svg>
